<?xml version="1.0" encoding="utf-8"?>
<svg xmlns="http://www.w3.org/2000/svg" viewBox="125.9398 112.2814 64 64" width="64px" height="64px"><g transform="matrix(0.9552234180791999, 0, 0, 0.980105610859539, 179.0259328708962, 270.71864240600377)" style="" id="object-1"><g id="group-3" rel="mainfill" name="symbol" transform="matrix(0.859105, 0, 0, 0.859105, -65.029816, -171.958862)" fill="#4C4C4C" style="fill: #4C4C4C"><g transform="translate(0,-952.36218)" fill="#4C4C4C" style="fill: #4C4C4C"><g transform="translate(11.005906,964.36238)" fill="#4C4C4C" style="fill: #4C4C4C"><path d="m 37.842519,0 c -4.251968,0.14173228 -8.07874,2.2322835 -11.905512,5.7047244 -4.996063,0.035433 -8.716535,0.5314961 -11.55118,2.4094488 -2.834646,1.8779528 -4.6062996,5.1023618 -6.0590555,9.9566928 -3.543307,2.055118 -5.9527558,4.748032 -6.7677164,8.07874 -0.77952756,3.330709 0,7.192914 2.3385826,11.586614 C 1.9133858,39.862205 0,42.838583 0,46.877953 c 0,2.125984 1.6299212,4.110236 4.03937,6.165354 6.69685,5.244094 14.492126,8.787401 22.110236,10.948819 l -21.3307085,0 c -0.4606299,0.106299 -0.8149606,0.531496 -0.8149606,1.027559 0,0.92126 0.6023622,1.488189 1.2755906,2.055118 3.4015747,2.409449 7.8661415,3.897638 11.3385825,4.996063 6.944882,2.161417 15.625984,3.933071 22.889763,3.933071 6.767717,0 15.200787,-1.771654 22.003937,-3.933071 3.968504,-1.417323 7.972441,-2.586614 11.232283,-4.996063 0.673228,-0.566929 1.240158,-1.133858 1.240158,-2.055118 0,-0.531496 -0.46063,-1.027559 -0.992126,-1.027559 l -21.153543,0 c 8.07874,-2.622047 15.838582,-5.633858 22.145669,-10.948819 2.374015,-2.055118 4.003937,-4.03937 4.003937,-6.165354 0,-4.14567 -2.019685,-6.448819 -3.933071,-9.177166 1.877952,-4.358267 2.692913,-7.972441 1.877952,-11.303149 -0.81496,-3.366142 -3.259842,-6.236221 -7.228346,-9.248032 C 67.251967,12.720472 65.480314,9.7086614 62.751967,7.9370078 60.059054,6.2007874 56.55118,5.7401575 52.015747,5.7047244 46.700787,1.7362205 42.12992,-0.10629921 37.842519,0 z m 0.07087,2.019685 c 3.720472,-0.1417323 7.901575,1.488189 13.145669,5.4212599 0.177166,0.1417322 0.389764,0.2125984 0.602362,0.2125984 4.606299,0 7.72441,0.531496 9.992126,1.9842519 2.267717,1.4527558 3.862205,3.9685038 5.279528,8.3976378 0.07087,0.212598 0.177165,0.389764 0.35433,0.496063 3.968504,2.940945 6.023622,5.527559 6.696851,8.362205 0.708661,2.834645 0.03543,6.129921 -1.948819,10.559055 -0.141733,0.318897 -0.106299,0.673228 0.106299,0.956693 2.090551,3.082677 3.862205,4.783464 3.862205,8.468504 0,0.921259 -1.133859,2.728346 -3.330709,4.641732 -7.61811,5.88189 -17.114173,9.885827 -25.937007,11.65748 2.622047,-2.19685 4.251968,-5.492126 4.251968,-9.177165 0,-0.531496 0,-1.027559 -0.07087,-1.559055 l 16.582677,-9.779528 c 0.531496,-0.389764 0.602362,-0.885827 0.35433,-1.417323 -0.35433,-0.566929 -0.885826,-0.496063 -1.346456,-0.283464 L 50.421259,50.385827 C 50.066928,49.251968 49.570865,48.188976 48.93307,47.267716 L 64.736219,30.507874 c 0.354331,-0.354331 0.283465,-1.027559 -0.07087,-1.38189 -0.46063,-0.46063 -0.992126,-0.318897 -1.38189,0 l -15.59055,16.582677 c -0.992126,-1.027559 -2.161418,-1.842519 -3.472441,-2.480315 l 6.732283,-23.137795 c 0.212598,-0.602362 -0.354331,-1.346457 -0.992126,-1.311024 -0.531496,0.03543 -0.779528,0.389764 -0.92126,0.744095 l -6.69685,22.96063 c -1.062992,-0.318898 -2.19685,-0.46063 -3.330709,-0.46063 -0.850393,0 -1.629921,0.03543 -2.409448,0.212598 0.03543,-0.07087 -5.173229,-17.751968 -6.625985,-22.712598 -0.248031,-0.602362 -0.673228,-0.779528 -1.169291,-0.744095 -0.566929,0.1063 -0.956693,0.779528 -0.779527,1.311024 l 6.625984,22.712598 c -1.417323,0.56693 -2.692914,1.38189 -3.826772,2.409449 L 15.732283,29.125984 c -0.673228,-0.496063 -1.027559,-0.318897 -1.38189,-0.07087 -0.389763,0.354331 -0.460629,1.062992 -0.07087,1.452756 l 15.23622,16.192913 c -0.850393,1.098425 -1.523622,2.338583 -1.948818,3.68504 L 11.515748,40.96063 c -0.708662,-0.318898 -1.098425,-0.03543 -1.346457,0.389764 -0.2125983,0.460629 -0.106299,1.062992 0.318898,1.311023 l 16.653543,9.779528 C 27.070866,52.972441 27,53.468504 27,54 c 0,3.685039 1.665354,6.980315 4.322834,9.177165 C 21.720472,60.732283 12.685039,57.720472 5.3503936,51.519685 3.1181102,49.606299 1.9842519,47.799212 1.9842519,46.877953 c 0,-3.68504 1.8425197,-6.448819 3.7559055,-8.326772 C 6.059055,38.232283 6.1299211,37.73622 5.9527558,37.346457 3.4724409,32.952756 2.8346456,29.444882 3.507874,26.645669 c 0.6732283,-2.834645 2.6929133,-5.102362 6.094488,-7.051181 0.2125984,-0.106299 0.3897638,-0.354331 0.46063,-0.602362 1.417323,-4.925197 3.047244,-7.653543 5.42126,-9.2480315 C 17.8937,8.1850393 21.224409,7.6535433 26.326771,7.6535433 26.574803,7.6535433 26.822834,7.5472441 27,7.3700787 30.401574,3.9685039 34.299212,2.1968504 37.913385,2.019685 z m 1.098425,41.952756 c 5.527559,0 9.992126,4.5 9.992126,10.027559 0,5.527559 -4.464567,9.992126 -9.992126,9.992126 -5.562992,0 -10.027559,-4.464567 -10.027559,-9.992126 0,-5.527559 4.464567,-10.027559 10.027559,-10.027559 z m -31.6771645,22.03937 31.6771645,0 31.641732,0 c -2.976378,1.913386 -6.838583,3.224409 -9.744094,4.145669 -6.661418,2.090551 -14.988189,3.862205 -21.401575,3.862205 -6.944881,0 -15.519684,-1.771654 -22.287401,-3.862205 -3.437008,-1.204724 -7.051181,-2.232283 -9.8858265,-4.145669 z" style="fill: #4C4C4C" fill="#4C4C4C" fill-opacity="1" fill-rule="nonzero" stroke="none"/></g></g></g></g></svg>