<svg xmlns="http://www.w3.org/2000/svg" xmlns:xlink="http://www.w3.org/1999/xlink" xmlns:svgjs="http://svgjs.com/svgjs" version="1.1" width="1595.8500671386719" height="902.495338703041"><rect width="1595.8500671386719" height="902.495338703041" fill="#ffffff"></rect><g transform="scale(5) translate(30, 30)"> <defs id="SvgjsDefs1474"></defs><g xmlns:name="main_text" id="SvgjsG1475" rel="mainfill" name="main_text" transform="translate(-0.7400000095367432,-128.8509383629074)" fill="#4C4C4C" style="fill: #4C4C4C"><path d="M0.74 240L11.41 240L11.41 239.39L7.56 238.86L7.56 229.47L9.79 229.47C15.21 229.47 18.88 226.50 18.88 222.00C18.88 216.62 15.82 214.52 11.41 214.52L0.74 214.52L0.74 215.14L4.15 215.62L4.15 238.95L0.74 239.43ZM10.27 215.75C13.76 215.75 15.43 218.33 15.43 222.17C15.43 226.28 13.59 228.33 9.66 228.33L7.56 228.33L7.56 215.75ZM23.77 230.08L23.77 229.43L34.83 229.43C34.65 223.66 32.82 219.94 28.14 219.94C23.51 219.94 20.63 224.57 20.63 230.52C20.63 236.59 23.29 240.35 28.58 240.35C31.33 240.35 33.78 238.60 34.65 237.25L34.26 236.42C32.95 237.60 31.07 238.34 29.85 238.34C26.39 238.34 23.77 235.41 23.77 230.08ZM27.88 220.90C30.54 220.90 31.33 224.23 31.29 228.29L23.82 228.29C24.12 223.44 25.83 220.90 27.88 220.90ZM38.72 226.93L40.16 222.13C41.25 221.34 42.34 220.99 43.30 220.99C45.05 220.99 46.36 221.91 46.36 225.14L46.36 229.03L44.44 229.03C39.50 229.03 36.53 231.78 36.53 235.15C36.53 238.38 38.50 240.35 41.08 240.35C43.57 240.35 45.45 238.69 46.45 237.51L46.93 240L51.78 240L51.78 239.56L49.42 238.73L49.42 225.71C49.42 221.38 46.41 219.94 43.39 219.94C41.08 219.94 39.07 220.77 37.75 221.47L37.75 226.93ZM46.32 236.94C44.92 237.86 43.48 238.43 42.30 238.43C40.64 238.43 39.55 237.33 39.55 234.58C39.55 231.87 40.90 230.17 43.83 230.17L46.36 230.17ZM52.96 240L62.23 240L62.23 239.52L58.86 238.65L58.86 223.83L58.77 222.74L61.09 222.39L64.63 223.44L64.76 223.44L65.63 220.16C65.02 219.99 64.50 219.94 63.89 219.94C62.40 219.94 60.48 220.86 58.73 222.48L58.55 219.94L56.98 219.94L52.74 221.52L52.74 222.00L55.76 222.00L55.76 238.73L52.96 239.56ZM66.07 240L74.94 240L74.94 239.52L72.01 238.69L72.01 209.28L69.87 209.28L65.85 210.46L65.85 210.98L68.91 210.98L68.91 238.73L66.07 239.56ZM81.58 240.35C84.77 240.35 88.05 238.69 88.05 234.19C88.05 226.41 78.52 230.56 78.52 224.88C78.52 222.17 80.14 221.21 82.06 221.21C83.46 221.21 84.64 221.73 85.73 222.43L86.65 226.06L87.44 226.06L87.44 221.17C86.00 220.34 84.21 219.94 82.54 219.94C79.27 219.94 76.30 222.00 76.30 225.80C76.30 233.66 85.60 229.82 85.60 235.41C85.60 237.99 83.68 239.04 81.58 239.04C80.23 239.04 79.05 238.65 78.00 237.99L76.73 233.66L76.08 233.66L76.08 239.04C77.48 239.74 79.27 240.35 81.58 240.35ZM114.40 230.17C114.40 223.22 111.87 219.94 106.80 219.94C102.51 219.94 98.97 225.01 98.97 230.39C98.97 237.38 101.82 240.35 106.49 240.35C110.95 240.35 114.40 235.46 114.40 230.17ZM111.04 230.69C111.04 234.93 110.82 239.30 107.02 239.30C102.95 239.30 102.34 233.79 102.34 229.69C102.34 225.62 102.65 220.95 106.49 220.95C110.69 220.95 111.04 227.02 111.04 230.69ZM115.84 240L125.11 240L125.11 239.52L121.74 238.65L121.74 221.38L125.28 221.38L125.28 220.34L121.74 220.34L121.74 215.18C121.74 213.34 121.87 211.73 122.92 210.72L126.94 212.82L127.16 212.82L127.73 209.37C127.16 209.19 126.59 209.15 126.07 209.15C122.44 209.15 118.68 212.30 118.68 216.49L118.68 220.29L115.75 221.12L115.75 221.38L118.68 221.38L118.68 238.73L115.84 239.56ZM135.68 240L146.34 240L146.34 239.39L142.50 238.86L142.50 229.47L144.73 229.47C150.14 229.47 153.82 226.50 153.82 222.00C153.82 216.62 150.76 214.52 146.34 214.52L135.68 214.52L135.68 215.14L139.09 215.62L139.09 238.95L135.68 239.43ZM145.21 215.75C148.70 215.75 150.36 218.33 150.36 222.17C150.36 226.28 148.53 228.33 144.59 228.33L142.50 228.33L142.50 215.75ZM170.99 230.17C170.99 223.22 168.45 219.94 163.38 219.94C159.10 219.94 155.56 225.01 155.56 230.39C155.56 237.38 158.40 240.35 163.08 240.35C167.54 240.35 170.99 235.46 170.99 230.17ZM167.62 230.69C167.62 234.93 167.41 239.30 163.60 239.30C159.54 239.30 158.93 233.79 158.93 229.69C158.93 225.62 159.23 220.95 163.08 220.95C167.27 220.95 167.62 227.02 167.62 230.69ZM172.61 240L181.87 240L181.87 239.52L178.50 238.65L178.50 223.83L178.42 222.74L180.73 222.39L184.27 223.44L184.40 223.44L185.28 220.16C184.67 219.99 184.14 219.94 183.53 219.94C182.04 219.94 180.12 220.86 178.37 222.48L178.20 219.94L176.63 219.94L172.39 221.52L172.39 222.00L175.40 222.00L175.40 238.73L172.61 239.56ZM196.99 238.51C196.20 238.82 195.15 239.08 194.32 239.08C192.49 239.08 191.09 238.16 191.05 235.06L191.05 221.47L196.55 221.47L196.55 220.34L191.05 220.34L191.05 215.22L190.56 215.22L187.99 220.25L185.50 221.12L185.50 221.47L187.86 221.47L187.86 234.63C187.81 238.78 190.22 240.35 192.79 240.35C194.19 240.35 195.76 239.87 197.12 239.13ZM211.50 240L216.52 240L216.52 239.56L213.94 238.73L213.94 219.94L212.63 219.94L207.83 221.52L207.83 222.00L210.88 222.00L210.88 237.16C209.31 238.21 208.35 238.47 206.73 238.47C204.07 238.47 203.37 236.07 203.37 231.96L203.37 219.94L202.06 219.94L197.25 221.52L197.25 222.00L200.31 222.00L200.31 233.66C200.31 237.55 201.75 240.35 205.51 240.35C207.48 240.35 208.74 239.69 210.93 237.55ZM225.00 232.31C228.06 232.31 230.98 229.56 230.98 226.37C230.98 224.88 230.64 223.53 229.94 222.43L234.04 222.43L234.04 220.34L233.78 220.34L229.59 222.00C228.54 220.73 226.96 219.94 224.78 219.94C221.15 219.94 218.75 223.26 218.75 226.45C218.75 229.21 220.32 231.22 222.68 231.96L218.97 236.15L218.97 237.77L221.81 238.21C219.32 239.52 217.22 241.57 217.22 243.80C217.22 246.77 219.45 249.35 223.82 249.35C229.63 249.35 232.99 245.11 232.99 241.31C232.99 238.47 231.12 236.46 226.48 235.72L221.50 234.97L223.43 232.18C223.91 232.27 224.43 232.31 225.00 232.31ZM220.15 243.54C220.15 241.27 220.89 239.69 222.42 238.30L225.74 238.78C229.46 239.30 230.55 241.05 230.55 242.88C230.55 245.46 228.06 247.87 224.74 247.87C221.28 247.87 220.15 245.68 220.15 243.54ZM224.91 231.22C222.81 231.22 221.98 229.34 221.98 226.10C221.98 222.78 222.90 220.99 224.65 220.99C226.53 220.99 227.58 222.43 227.58 226.58C227.58 229.47 226.88 231.22 224.91 231.22ZM237.10 226.93L238.54 222.13C239.64 221.34 240.73 220.99 241.69 220.99C243.44 220.99 244.75 221.91 244.75 225.14L244.75 229.03L242.83 229.03C237.89 229.03 234.92 231.78 234.92 235.15C234.92 238.38 236.88 240.35 239.46 240.35C241.95 240.35 243.83 238.69 244.84 237.51L245.32 240L250.17 240L250.17 239.56L247.81 238.73L247.81 225.71C247.81 221.38 244.79 219.94 241.78 219.94C239.46 219.94 237.45 220.77 236.14 221.47L236.14 226.93ZM244.71 236.94C243.31 237.86 241.87 238.43 240.69 238.43C239.03 238.43 237.93 237.33 237.93 234.58C237.93 231.87 239.29 230.17 242.22 230.17L244.75 230.17ZM251.04 240L259.91 240L259.91 239.52L256.98 238.69L256.98 209.28L254.84 209.28L250.82 210.46L250.82 210.98L253.88 210.98L253.88 238.73L251.04 239.56Z" fill="#4C4C4C" style="fill: #4C4C4C"></path></g><g xmlns:name="symbol_mainfill" id="SvgjsG1476" rel="mainfill" name="symbol" transform="translate(86.62978391795153,-10.305687655374626) scale(0.8591044395321964)" fill="#4C4C4C" style="fill: #4C4C4C"><g transform="translate(0,-952.36218)" fill="#4C4C4C" style="fill: #4C4C4C"><g transform="translate(11.005906,964.36238)" fill="#4C4C4C" style="fill: #4C4C4C"><path d="m 37.842519,0 c -4.251968,0.14173228 -8.07874,2.2322835 -11.905512,5.7047244 -4.996063,0.035433 -8.716535,0.5314961 -11.55118,2.4094488 -2.834646,1.8779528 -4.6062996,5.1023618 -6.0590555,9.9566928 -3.543307,2.055118 -5.9527558,4.748032 -6.7677164,8.07874 -0.77952756,3.330709 0,7.192914 2.3385826,11.586614 C 1.9133858,39.862205 0,42.838583 0,46.877953 c 0,2.125984 1.6299212,4.110236 4.03937,6.165354 6.69685,5.244094 14.492126,8.787401 22.110236,10.948819 l -21.3307085,0 c -0.4606299,0.106299 -0.8149606,0.531496 -0.8149606,1.027559 0,0.92126 0.6023622,1.488189 1.2755906,2.055118 3.4015747,2.409449 7.8661415,3.897638 11.3385825,4.996063 6.944882,2.161417 15.625984,3.933071 22.889763,3.933071 6.767717,0 15.200787,-1.771654 22.003937,-3.933071 3.968504,-1.417323 7.972441,-2.586614 11.232283,-4.996063 0.673228,-0.566929 1.240158,-1.133858 1.240158,-2.055118 0,-0.531496 -0.46063,-1.027559 -0.992126,-1.027559 l -21.153543,0 c 8.07874,-2.622047 15.838582,-5.633858 22.145669,-10.948819 2.374015,-2.055118 4.003937,-4.03937 4.003937,-6.165354 0,-4.14567 -2.019685,-6.448819 -3.933071,-9.177166 1.877952,-4.358267 2.692913,-7.972441 1.877952,-11.303149 -0.81496,-3.366142 -3.259842,-6.236221 -7.228346,-9.248032 C 67.251967,12.720472 65.480314,9.7086614 62.751967,7.9370078 60.059054,6.2007874 56.55118,5.7401575 52.015747,5.7047244 46.700787,1.7362205 42.12992,-0.10629921 37.842519,0 z m 0.07087,2.019685 c 3.720472,-0.1417323 7.901575,1.488189 13.145669,5.4212599 0.177166,0.1417322 0.389764,0.2125984 0.602362,0.2125984 4.606299,0 7.72441,0.531496 9.992126,1.9842519 2.267717,1.4527558 3.862205,3.9685038 5.279528,8.3976378 0.07087,0.212598 0.177165,0.389764 0.35433,0.496063 3.968504,2.940945 6.023622,5.527559 6.696851,8.362205 0.708661,2.834645 0.03543,6.129921 -1.948819,10.559055 -0.141733,0.318897 -0.106299,0.673228 0.106299,0.956693 2.090551,3.082677 3.862205,4.783464 3.862205,8.468504 0,0.921259 -1.133859,2.728346 -3.330709,4.641732 -7.61811,5.88189 -17.114173,9.885827 -25.937007,11.65748 2.622047,-2.19685 4.251968,-5.492126 4.251968,-9.177165 0,-0.531496 0,-1.027559 -0.07087,-1.559055 l 16.582677,-9.779528 c 0.531496,-0.389764 0.602362,-0.885827 0.35433,-1.417323 -0.35433,-0.566929 -0.885826,-0.496063 -1.346456,-0.283464 L 50.421259,50.385827 C 50.066928,49.251968 49.570865,48.188976 48.93307,47.267716 L 64.736219,30.507874 c 0.354331,-0.354331 0.283465,-1.027559 -0.07087,-1.38189 -0.46063,-0.46063 -0.992126,-0.318897 -1.38189,0 l -15.59055,16.582677 c -0.992126,-1.027559 -2.161418,-1.842519 -3.472441,-2.480315 l 6.732283,-23.137795 c 0.212598,-0.602362 -0.354331,-1.346457 -0.992126,-1.311024 -0.531496,0.03543 -0.779528,0.389764 -0.92126,0.744095 l -6.69685,22.96063 c -1.062992,-0.318898 -2.19685,-0.46063 -3.330709,-0.46063 -0.850393,0 -1.629921,0.03543 -2.409448,0.212598 0.03543,-0.07087 -5.173229,-17.751968 -6.625985,-22.712598 -0.248031,-0.602362 -0.673228,-0.779528 -1.169291,-0.744095 -0.566929,0.1063 -0.956693,0.779528 -0.779527,1.311024 l 6.625984,22.712598 c -1.417323,0.56693 -2.692914,1.38189 -3.826772,2.409449 L 15.732283,29.125984 c -0.673228,-0.496063 -1.027559,-0.318897 -1.38189,-0.07087 -0.389763,0.354331 -0.460629,1.062992 -0.07087,1.452756 l 15.23622,16.192913 c -0.850393,1.098425 -1.523622,2.338583 -1.948818,3.68504 L 11.515748,40.96063 c -0.708662,-0.318898 -1.098425,-0.03543 -1.346457,0.389764 -0.2125983,0.460629 -0.106299,1.062992 0.318898,1.311023 l 16.653543,9.779528 C 27.070866,52.972441 27,53.468504 27,54 c 0,3.685039 1.665354,6.980315 4.322834,9.177165 C 21.720472,60.732283 12.685039,57.720472 5.3503936,51.519685 3.1181102,49.606299 1.9842519,47.799212 1.9842519,46.877953 c 0,-3.68504 1.8425197,-6.448819 3.7559055,-8.326772 C 6.059055,38.232283 6.1299211,37.73622 5.9527558,37.346457 3.4724409,32.952756 2.8346456,29.444882 3.507874,26.645669 c 0.6732283,-2.834645 2.6929133,-5.102362 6.094488,-7.051181 0.2125984,-0.106299 0.3897638,-0.354331 0.46063,-0.602362 1.417323,-4.925197 3.047244,-7.653543 5.42126,-9.2480315 C 17.8937,8.1850393 21.224409,7.6535433 26.326771,7.6535433 26.574803,7.6535433 26.822834,7.5472441 27,7.3700787 30.401574,3.9685039 34.299212,2.1968504 37.913385,2.019685 z m 1.098425,41.952756 c 5.527559,0 9.992126,4.5 9.992126,10.027559 0,5.527559 -4.464567,9.992126 -9.992126,9.992126 -5.562992,0 -10.027559,-4.464567 -10.027559,-9.992126 0,-5.527559 4.464567,-10.027559 10.027559,-10.027559 z m -31.6771645,22.03937 31.6771645,0 31.641732,0 c -2.976378,1.913386 -6.838583,3.224409 -9.744094,4.145669 -6.661418,2.090551 -14.988189,3.862205 -21.401575,3.862205 -6.944881,0 -15.519684,-1.771654 -22.287401,-3.862205 -3.437008,-1.204724 -7.051181,-2.232283 -9.8858265,-4.145669 z" style="fill: #4C4C4C" fill="#4C4C4C" fill-opacity="1" fill-rule="nonzero" stroke="none"></path></g></g></g> </g></svg>
